# xmcd CD database file
#
# Track frame offsets:
#	150
#	3513
#	20698
#	43887
#	64199
#	82206
#	87806
#	97266
#	115871
#	131370
#	138894
#	156084
#
# Disc length: 2334 seconds
#
# Revision: 0
# Processed by: cddbd v1.5.2PL0 Copyright (c) Steve Scherf et al.
# Submitted via: CDex 1.70beta2
#
DISCID=9f091c0c
DTITLE=STAN KENTON AND HIS ORCHESTRA WITH JUNE CHRISTY - STAN KENTON AND HIS ORCHESTRA WITH JUNE CHRISTY AT THE HOLLYWOOD BOWL 1948
DYEAR=1948
DGENRE=Jazz
TTITLE0=THEME ARTISTRY ON RHYTHM
TTITLE1=ARTISTRY JUMPS
TTITLE2=INTERMISSION RIFF
TTITLE3=ELEGY FOR ALTO
TTITLE4=THE PEANUT VENDOR
TTITLE5=HOW HIGH THE MOON
TTITLE6=I TOLD YOU I LOVE YA NOW GET OUT
TTITLE7=LONELY WOMAN
TTITLE8=SOUTHERN SCANDAL
TTITLE9=TREES
TTITLE10=EAGER BEAVER
TTITLE11=A THEME TO THE WEST
EXTD=YEAR: 1948
EXTT0=
EXTT1=
EXTT2=
EXTT3=
EXTT4=
EXTT5=
EXTT6=
EXTT7=
EXTT8=
EXTT9=
EXTT10=
EXTT11=
PLAYORDER=
